<svg width="48" height="77" viewBox="0 0 48 77" fill="none" xmlns="http://www.w3.org/2000/svg">
<g clip-path="url(#clip0)">
<path d="M28.8 62.4C28.8 65.055 26.655 67.2 24 67.2C21.345 67.2 19.2 65.055 19.2 62.4C19.2 59.745 21.345 57.6 24 57.6C26.655 57.6 28.8 59.745 28.8 62.4ZM48 7.2V69.6C48 73.575 44.775 76.8 40.8 76.8H7.2C3.225 76.8 0 73.575 0 69.6V7.2C0 3.225 3.225 0 7.2 0H40.8C44.775 0 48 3.225 48 7.2ZM43.2 7.2C43.2 5.88 42.12 4.8 40.8 4.8H7.2C5.88 4.8 4.8 5.88 4.8 7.2V69.6C4.8 70.92 5.88 72 7.2 72H40.8C42.12 72 43.2 70.92 43.2 69.6V7.2Z" fill="white"/>
</g>
<defs>
<clipPath id="clip0">
<rect width="48" height="77" fill="white"/>
</clipPath>
</defs>
</svg>
