<svg width="75" height="73" viewBox="0 0 75 73" fill="none" xmlns="http://www.w3.org/2000/svg">
<g clip-path="url(#clip0)">
<path d="M24.885 58.41C24.885 58.71 24.54 58.95 24.105 58.95C23.61 58.995 23.265 58.755 23.265 58.41C23.265 58.11 23.61 57.87 24.045 57.87C24.495 57.825 24.885 58.065 24.885 58.41ZM20.22 57.735C20.115 58.035 20.415 58.38 20.865 58.47C21.255 58.62 21.705 58.47 21.795 58.17C21.885 57.87 21.6 57.525 21.15 57.39C20.76 57.285 20.325 57.435 20.22 57.735ZM26.85 57.48C26.415 57.585 26.115 57.87 26.16 58.215C26.205 58.515 26.595 58.71 27.045 58.605C27.48 58.5 27.78 58.215 27.735 57.915C27.69 57.63 27.285 57.435 26.85 57.48ZM36.72 0C15.915 0 0 15.795 0 36.6C0 53.235 10.47 67.47 25.425 72.48C27.345 72.825 28.02 71.64 28.02 70.665C28.02 69.735 27.975 64.605 27.975 61.455C27.975 61.455 17.475 63.705 15.27 56.985C15.27 56.985 13.56 52.62 11.1 51.495C11.1 51.495 7.665 49.14 11.34 49.185C11.34 49.185 15.075 49.485 17.13 53.055C20.415 58.845 25.92 57.18 28.065 56.19C28.41 53.79 29.385 52.125 30.465 51.135C22.08 50.205 13.62 48.99 13.62 34.56C13.62 30.435 14.76 28.365 17.16 25.725C16.77 24.75 15.495 20.73 17.55 15.54C20.685 14.565 27.9 19.59 27.9 19.59C30.9 18.75 34.125 18.315 37.32 18.315C40.515 18.315 43.74 18.75 46.74 19.59C46.74 19.59 53.955 14.55 57.09 15.54C59.145 20.745 57.87 24.75 57.48 25.725C59.88 28.38 61.35 30.45 61.35 34.56C61.35 49.035 52.515 50.19 44.13 51.135C45.51 52.32 46.68 54.57 46.68 58.095C46.68 63.15 46.635 69.405 46.635 70.635C46.635 71.61 47.325 72.795 49.23 72.45C64.23 67.47 74.4 53.235 74.4 36.6C74.4 15.795 57.525 0 36.72 0ZM14.58 51.735C14.385 51.885 14.43 52.23 14.685 52.515C14.925 52.755 15.27 52.86 15.465 52.665C15.66 52.515 15.615 52.17 15.36 51.885C15.12 51.645 14.775 51.54 14.58 51.735ZM12.96 50.52C12.855 50.715 13.005 50.955 13.305 51.105C13.545 51.255 13.845 51.21 13.95 51C14.055 50.805 13.905 50.565 13.605 50.415C13.305 50.325 13.065 50.37 12.96 50.52ZM17.82 55.86C17.58 56.055 17.67 56.505 18.015 56.79C18.36 57.135 18.795 57.18 18.99 56.94C19.185 56.745 19.095 56.295 18.795 56.01C18.465 55.665 18.015 55.62 17.82 55.86ZM16.11 53.655C15.87 53.805 15.87 54.195 16.11 54.54C16.35 54.885 16.755 55.035 16.95 54.885C17.19 54.69 17.19 54.3 16.95 53.955C16.74 53.61 16.35 53.46 16.11 53.655Z" fill="#121212"/>
</g>
<defs>
<clipPath id="clip0">
<rect width="75" height="73" fill="white"/>
</clipPath>
</defs>
</svg>
