<svg width="77" height="68" viewBox="0 0 77 68" fill="none" xmlns="http://www.w3.org/2000/svg">
<g clip-path="url(#clip0)">
<path d="M69.6 0H7.2C3.225 0 0 3.225 0 7.2V60C0 63.975 3.225 67.2 7.2 67.2H69.6C73.575 67.2 76.8 63.975 76.8 60V7.2C76.8 3.225 73.575 0 69.6 0ZM4.8 7.2C4.8 5.88 5.88 4.8 7.2 4.8H14.4V14.4H4.8V7.2ZM72 60C72 61.32 70.92 62.4 69.6 62.4H7.2C5.88 62.4 4.8 61.32 4.8 60V19.2H72V60ZM72 14.4H19.2V4.8H69.6C70.92 4.8 72 5.88 72 7.2V14.4Z" fill="#121212"/>
</g>
<defs>
<clipPath id="clip0">
<rect width="77" height="68" fill="white"/>
</clipPath>
</defs>
</svg>
