<svg width="78" height="78" viewBox="0 0 78 78" fill="none" xmlns="http://www.w3.org/2000/svg">
<path d="M0.879883 0.879883V77.0399H77.0399V0.879883H0.879883ZM42.3259 60.2779C42.3259 67.6899 37.9739 71.0729 31.6329 71.0729C25.9039 71.0729 22.5889 68.1149 20.8889 64.5279L26.7199 61.0089C27.8419 62.9979 28.8619 64.6809 31.3269 64.6809C33.6729 64.6809 35.1689 63.7629 35.1689 60.1759V35.8489H42.3259V60.2779V60.2779ZM59.2579 71.0729C52.6109 71.0729 48.3099 67.9109 46.2189 63.7629L52.0499 60.3969C53.5799 62.8959 55.5859 64.7489 59.1049 64.7489C62.0629 64.7489 63.9669 63.2699 63.9669 61.2129C63.9669 58.7649 62.0289 57.8979 58.7479 56.4529L56.9629 55.6879C51.7949 53.4949 48.3779 50.7239 48.3779 44.8929C48.3779 39.5209 52.4749 35.4409 58.8499 35.4409C63.4059 35.4409 66.6699 37.0219 69.0159 41.1699L63.4399 44.7399C62.2159 42.5469 60.8899 41.6799 58.8329 41.6799C56.7419 41.6799 55.4159 43.0059 55.4159 44.7399C55.4159 46.8819 56.7419 47.7489 59.8189 49.0919L61.6039 49.8569C67.6899 52.4579 71.1069 55.1269 71.1069 61.1109C71.1069 67.5369 66.0409 71.0729 59.2579 71.0729V71.0729Z" fill="#121212"/>
</svg>
