<svg width="91" height="81" viewBox="0 0 91 81" fill="none" xmlns="http://www.w3.org/2000/svg">
<path d="M86.2504 27.5227L61.4271 24.2283L50.3322 3.75018C48.3443 0.100001 42.5844 0.0536007 40.5796 3.75018L29.4847 24.2283L4.66137 27.5227C0.209828 28.1105 -1.57419 33.1062 1.65403 35.9676L19.6131 51.8985L15.3655 74.4027C14.6009 78.4705 19.3073 81.5174 23.2491 79.615L45.4559 68.9893L67.6626 79.615C71.6044 81.502 76.3108 78.4705 75.5463 74.4027L71.2986 51.8985L89.2577 35.9676C92.4859 33.1062 90.7019 28.1105 86.2504 27.5227V27.5227ZM65.4708 50.1662L70.1942 75.2224L45.4559 63.4058L20.7345 75.2379L25.4579 50.1816L5.44294 32.4102L33.0867 28.7601L45.4559 5.94647L57.825 28.7601L85.4688 32.4102L65.4708 50.1662Z" fill="#121212"/>
</svg>
