<svg width="814" height="332" viewBox="0 0 814 332" fill="none" xmlns="http://www.w3.org/2000/svg">
<path d="M7.21875 96.0625C4.59375 96.0625 2.42188 95.6719 0.703125 94.8906V84.5312C2.14062 85.0938 3.48438 85.375 4.73438 85.375C7.67188 85.375 9.14062 82.7188 9.14062 77.4062V20.7812H21.6094V79.0469C21.6094 84.4844 20.3438 88.6719 17.8125 91.6094C15.3125 94.5781 11.7812 96.0625 7.21875 96.0625ZM8.67188 7.14062C8.67188 5.07812 9.26562 3.45312 10.4531 2.26562C11.6719 1.04688 13.3438 0.4375 15.4688 0.4375C17.5625 0.4375 19.2031 1.04688 20.3906 2.26562C21.5781 3.48438 22.1719 5.10938 22.1719 7.14062C22.1719 9.23438 21.5625 10.875 20.3438 12.0625C19.125 13.25 17.5 13.8438 15.4688 13.8438C13.4375 13.8438 11.7969 13.2656 10.5469 12.1094C9.29688 10.9531 8.67188 9.29688 8.67188 7.14062ZM51.4688 73.9375C44.9375 73.9375 39.7812 71.625 36 67C32.25 62.3438 30.375 55.7656 30.375 47.2656C30.375 38.6406 32.0781 31.9062 35.4844 27.0625C38.8906 22.2188 43.6406 19.7969 49.7344 19.7969C55.4219 19.7969 59.9062 21.875 63.1875 26.0312C66.4688 30.1562 68.1094 35.9531 68.1094 43.4219V50.0781H43.0312C43.125 54.7344 44.0781 58.2031 45.8906 60.4844C47.7031 62.7344 50.2031 63.8594 53.3906 63.8594C57.4531 63.8594 61.6094 62.5938 65.8594 60.0625V70.3281C61.8594 72.7344 57.0625 73.9375 51.4688 73.9375ZM49.6406 29.4062C47.8594 29.4062 46.3906 30.3594 45.2344 32.2656C44.0781 34.1406 43.4062 37.0625 43.2188 41.0312H55.875C55.8125 37.2188 55.2344 34.3281 54.1406 32.3594C53.0469 30.3906 51.5469 29.4062 49.6406 29.4062ZM56.4375 82.6562C56.4375 84.0312 56.75 85.0312 57.375 85.6562C58.0312 86.2812 58.8438 86.5938 59.8125 86.5938C61.0625 86.5938 62.3125 86.375 63.5625 85.9375V93.8125C61.4062 94.3125 59.5156 94.5625 57.8906 94.5625C54.6406 94.5625 52.0156 93.6406 50.0156 91.7969C48.0469 89.9531 47.0625 87.4531 47.0625 84.2969C47.0625 79.8906 49.5469 75.7656 54.5156 71.9219H62.3906C58.4219 76.0156 56.4375 79.5938 56.4375 82.6562ZM103.406 73H72.9844V65.0312L89.0156 30.8594H74.0156V20.7812H102.75V29.5938L87.1875 62.9219H103.406V73ZM105.375 20.7812H118.312L125.531 50.2656C126.25 52.8906 126.828 56.5625 127.266 61.2812H127.547C127.578 60.5312 127.719 59.2031 127.969 57.2969C128.219 55.3594 128.422 53.8438 128.578 52.75C128.734 51.6562 130.891 41 135.047 20.7812H148.172L133.219 76.75C131.406 83.625 129 88.5625 126 91.5625C123 94.5625 119 96.0625 114 96.0625C111.531 96.0625 109.328 95.7969 107.391 95.2656V84.8125C108.672 85.1875 110.109 85.375 111.703 85.375C115.891 85.375 118.641 82.625 119.953 77.125L120.844 73.8438L105.375 20.7812ZM165.797 44.875L168.938 38.6406L179.25 20.7812H192.469L179.25 42.2031L193.359 73H180.281L170.859 50.9219L165.984 55.3281V73H153.516V0.0625H165.984V34.4219L165.422 44.875H165.797ZM245.812 73.9375C243.562 73.9375 241.562 73.4375 239.812 72.4375C238.094 71.4062 236.484 69.6094 234.984 67.0469H234.328C234.828 71.2969 235.078 73.8594 235.078 74.7344V96.0625H222.516V20.7812H232.172L234.328 27.5781H234.891C237.484 22.3906 241.25 19.7969 246.188 19.7969C250.938 19.7969 254.656 22.1562 257.344 26.875C260.031 31.5625 261.375 38.2031 261.375 46.7969C261.375 55.2656 259.984 61.9062 257.203 66.7188C254.422 71.5312 250.625 73.9375 245.812 73.9375ZM241.969 30.3906C239.531 30.3906 237.766 31.5312 236.672 33.8125C235.609 36.0625 235.047 39.8125 234.984 45.0625V46.7031C234.984 52.4531 235.531 56.6406 236.625 59.2656C237.719 61.8906 239.531 63.2031 242.062 63.2031C246.438 63.2031 248.625 57.6719 248.625 46.6094C248.625 41.1719 248.078 37.1094 246.984 34.4219C245.922 31.7344 244.25 30.3906 241.969 30.3906ZM292.406 19.7969C293.938 19.7969 295.438 20.0312 296.906 20.5L295.453 32.5938C294.578 32.2812 293.438 32.125 292.031 32.125C289 32.125 286.672 33.3281 285.047 35.7344C283.422 38.1094 282.609 41.5781 282.609 46.1406V73H270.141V20.7812H280.406L281.812 28.9375H282.234C283.609 25.6562 285.109 23.3125 286.734 21.9062C288.359 20.5 290.25 19.7969 292.406 19.7969ZM341.156 46.7969C341.156 55.3594 339.344 62.0312 335.719 66.8125C332.094 71.5625 327.125 73.9375 320.812 73.9375C316.812 73.9375 313.281 72.8438 310.219 70.6562C307.156 68.4688 304.797 65.3281 303.141 61.2344C301.484 57.1094 300.656 52.2969 300.656 46.7969C300.656 38.3281 302.453 31.7188 306.047 26.9688C309.641 22.1875 314.625 19.7969 321 19.7969C327.156 19.7969 332.047 22.2344 335.672 27.1094C339.328 31.9531 341.156 38.5156 341.156 46.7969ZM313.406 46.7969C313.406 52.2344 314 56.3438 315.188 59.125C316.375 61.9062 318.281 63.2969 320.906 63.2969C325.906 63.2969 328.406 57.7969 328.406 46.7969C328.406 41.3281 327.797 37.25 326.578 34.5625C325.391 31.8438 323.5 30.4844 320.906 30.4844C318.281 30.4844 316.375 31.8438 315.188 34.5625C314 37.25 313.406 41.3281 313.406 46.7969ZM387.516 20.875V28.1875L381.281 29.5938C382.5 31.7812 383.109 34.5312 383.109 37.8438C383.109 43.375 381.609 47.7031 378.609 50.8281C375.609 53.9531 371.422 55.5156 366.047 55.5156C364.484 55.5156 363.328 55.3906 362.578 55.1406C361.984 55.6719 361.422 56.2656 360.891 56.9219C360.359 57.5781 360.094 58.3906 360.094 59.3594C360.094 61.5469 361.984 62.6406 365.766 62.6406H373.312C377.75 62.6406 381.156 63.8438 383.531 66.25C385.938 68.625 387.141 72.2188 387.141 77.0312C387.141 83.0938 385.109 87.7812 381.047 91.0938C376.984 94.4062 371.141 96.0625 363.516 96.0625C357.734 96.0625 353.281 94.7969 350.156 92.2656C347.031 89.7656 345.469 86.1875 345.469 81.5312C345.469 78.625 346.359 76.0625 348.141 73.8438C349.922 71.6562 352.391 70.0625 355.547 69.0625C353.953 68.4375 352.641 67.4688 351.609 66.1562C350.609 64.8438 350.109 63.3125 350.109 61.5625C350.109 60.5 350.266 59.5469 350.578 58.7031C350.891 57.8281 351.328 57.0156 351.891 56.2656C352.484 55.4844 353.672 54.3438 355.453 52.8438C353.297 51.5312 351.594 49.5156 350.344 46.7969C349.094 44.0781 348.469 41.0625 348.469 37.75C348.469 32.0312 349.969 27.6094 352.969 24.4844C355.969 21.3594 360.266 19.7969 365.859 19.7969C366.922 19.7969 368.141 19.9219 369.516 20.1719C370.891 20.3906 371.938 20.625 372.656 20.875H387.516ZM356.812 80.5938C356.812 82.6562 357.453 84.2344 358.734 85.3281C360.047 86.4531 361.906 87.0156 364.312 87.0156C368.094 87.0156 370.922 86.2969 372.797 84.8594C374.703 83.4219 375.656 81.4531 375.656 78.9531C375.656 76.9844 375.141 75.5938 374.109 74.7812C373.109 73.9688 371.219 73.5625 368.438 73.5625H362.391C360.703 73.5625 359.344 74.1875 358.312 75.4375C357.312 76.7188 356.812 78.4375 356.812 80.5938ZM360.656 37.8438C360.656 44 362.391 47.0781 365.859 47.0781C369.234 47.0781 370.922 43.9688 370.922 37.75C370.922 31.375 369.234 28.1875 365.859 28.1875C362.391 28.1875 360.656 31.4062 360.656 37.8438ZM416.062 19.7969C417.594 19.7969 419.094 20.0312 420.562 20.5L419.109 32.5938C418.234 32.2812 417.094 32.125 415.688 32.125C412.656 32.125 410.328 33.3281 408.703 35.7344C407.078 38.1094 406.266 41.5781 406.266 46.1406V73H393.797V20.7812H404.062L405.469 28.9375H405.891C407.266 25.6562 408.766 23.3125 410.391 21.9062C412.016 20.5 413.906 19.7969 416.062 19.7969ZM451.734 73L449.25 65.875H448.969C447.125 68.9375 445.219 71.0469 443.25 72.2031C441.281 73.3594 438.797 73.9375 435.797 73.9375C431.953 73.9375 428.922 72.5 426.703 69.625C424.516 66.75 423.422 62.75 423.422 57.625C423.422 52.125 424.922 48.0469 427.922 45.3906C430.953 42.7031 435.469 41.2188 441.469 40.9375L448.406 40.6562V36.9062C448.406 32.0312 446.297 29.5938 442.078 29.5938C438.953 29.5938 435.359 30.8125 431.297 33.25L426.984 24.625C432.172 21.3438 437.812 19.7031 443.906 19.7031C449.438 19.7031 453.641 21.2969 456.516 24.4844C459.422 27.6406 460.875 32.125 460.875 37.9375V73H451.734ZM440.906 64.1875C443.188 64.1875 445 63.1719 446.344 61.1406C447.719 59.0781 448.406 56.3438 448.406 52.9375V48.5312L444.562 48.7188C441.719 48.875 439.625 49.6875 438.281 51.1562C436.969 52.625 436.312 54.8125 436.312 57.7188C436.312 62.0312 437.844 64.1875 440.906 64.1875ZM522.797 73V41.875C522.797 34.2188 520.906 30.3906 517.125 30.3906C514.375 30.3906 512.406 31.7656 511.219 34.5156C510.031 37.2344 509.438 41.6094 509.438 47.6406V73H496.875V41.875C496.875 34.2188 494.953 30.3906 491.109 30.3906C488.422 30.3906 486.469 31.75 485.25 34.4688C484.031 37.1875 483.422 41.6719 483.422 47.9219V73H470.953V20.7812H480.844L482.344 27.4844H483.141C484.391 24.8281 486.094 22.8906 488.25 21.6719C490.438 20.4219 492.766 19.7969 495.234 19.7969C501.609 19.7969 505.859 22.8125 507.984 28.8438H508.453C511.109 22.8125 515.375 19.7969 521.25 19.7969C525.875 19.7969 529.375 21.4219 531.75 24.6719C534.156 27.9219 535.359 32.6719 535.359 38.9219V73H522.797ZM584.156 46.7969C584.156 55.3594 582.344 62.0312 578.719 66.8125C575.094 71.5625 570.125 73.9375 563.812 73.9375C559.812 73.9375 556.281 72.8438 553.219 70.6562C550.156 68.4688 547.797 65.3281 546.141 61.2344C544.484 57.1094 543.656 52.2969 543.656 46.7969C543.656 38.3281 545.453 31.7188 549.047 26.9688C552.641 22.1875 557.625 19.7969 564 19.7969C570.156 19.7969 575.047 22.2344 578.672 27.1094C582.328 31.9531 584.156 38.5156 584.156 46.7969ZM556.406 46.7969C556.406 52.2344 557 56.3438 558.188 59.125C559.375 61.9062 561.281 63.2969 563.906 63.2969C568.906 63.2969 571.406 57.7969 571.406 46.7969C571.406 41.3281 570.797 37.25 569.578 34.5625C568.391 31.8438 566.5 30.4844 563.906 30.4844C561.281 30.4844 559.375 31.8438 558.188 34.5625C557 37.25 556.406 41.3281 556.406 46.7969ZM629.297 73L624.094 42.6719L622.266 29.875H622.078C621.609 34.0312 621.234 37.0469 620.953 38.9219C620.672 40.7656 618.688 52.125 615 73H598.969L588.562 20.7812H601.078L605.859 49.5625C606.422 52.75 606.938 57.4219 607.406 63.5781H607.688C607.75 61.9219 607.969 59.4062 608.344 56.0312C608.719 52.625 608.984 50.4375 609.141 49.4688L614.297 20.7812H630.328L635.438 49.5625C636.031 52.625 636.547 57.2969 636.984 63.5781H637.172C637.609 57.9844 638.156 53.3125 638.812 49.5625L643.781 20.7812H655.969L645.516 73H629.297ZM687.891 73L685.406 65.875H685.125C683.281 68.9375 681.375 71.0469 679.406 72.2031C677.438 73.3594 674.953 73.9375 671.953 73.9375C668.109 73.9375 665.078 72.5 662.859 69.625C660.672 66.75 659.578 62.75 659.578 57.625C659.578 52.125 661.078 48.0469 664.078 45.3906C667.109 42.7031 671.625 41.2188 677.625 40.9375L684.562 40.6562V36.9062C684.562 32.0312 682.453 29.5938 678.234 29.5938C675.109 29.5938 671.516 30.8125 667.453 33.25L663.141 24.625C668.328 21.3438 673.969 19.7031 680.062 19.7031C685.594 19.7031 689.797 21.2969 692.672 24.4844C695.578 27.6406 697.031 32.125 697.031 37.9375V73H687.891ZM677.062 64.1875C679.344 64.1875 681.156 63.1719 682.5 61.1406C683.875 59.0781 684.562 56.3438 684.562 52.9375V48.5312L680.719 48.7188C677.875 48.875 675.781 49.6875 674.438 51.1562C673.125 52.625 672.469 54.8125 672.469 57.7188C672.469 62.0312 674 64.1875 677.062 64.1875ZM733.125 73V41.875C733.125 38.0938 732.672 35.2344 731.766 33.2969C730.859 31.3594 729.391 30.3906 727.359 30.3906C724.672 30.3906 722.703 31.7344 721.453 34.4219C720.203 37.0781 719.578 41.5781 719.578 47.9219V73H707.109V20.7812H717L718.5 27.4844H719.297C720.422 25.0781 722.031 23.2031 724.125 21.8594C726.219 20.4844 728.672 19.7969 731.484 19.7969C736.234 19.7969 739.781 21.4219 742.125 24.6719C744.5 27.9219 745.688 32.6719 745.688 38.9219V73H733.125ZM768.328 73H755.859V20.7812H768.328V73ZM755.344 7.14062C755.344 5.07812 755.938 3.45312 757.125 2.26562C758.344 1.04688 760.031 0.4375 762.188 0.4375C764.219 0.4375 765.844 1.04688 767.062 2.26562C768.281 3.45312 768.891 5.07812 768.891 7.14062C768.891 9.26562 768.266 10.9219 767.016 12.1094C765.766 13.2656 764.156 13.8438 762.188 13.8438C760.125 13.8438 758.469 13.2656 757.219 12.1094C755.969 10.9219 755.344 9.26562 755.344 7.14062ZM804.609 73L802.125 65.875H801.844C800 68.9375 798.094 71.0469 796.125 72.2031C794.156 73.3594 791.672 73.9375 788.672 73.9375C784.828 73.9375 781.797 72.5 779.578 69.625C777.391 66.75 776.297 62.75 776.297 57.625C776.297 52.125 777.797 48.0469 780.797 45.3906C783.828 42.7031 788.344 41.2188 794.344 40.9375L801.281 40.6562V36.9062C801.281 32.0312 799.172 29.5938 794.953 29.5938C791.828 29.5938 788.234 30.8125 784.172 33.25L779.859 24.625C785.047 21.3438 790.688 19.7031 796.781 19.7031C802.312 19.7031 806.516 21.2969 809.391 24.4844C812.297 27.6406 813.75 32.125 813.75 37.9375V73H804.609ZM793.781 64.1875C796.062 64.1875 797.875 63.1719 799.219 61.1406C800.594 59.0781 801.281 56.3438 801.281 52.9375V48.5312L797.438 48.7188C794.594 48.875 792.5 49.6875 791.156 51.1562C789.844 52.625 789.188 54.8125 789.188 57.7188C789.188 62.0312 790.719 64.1875 793.781 64.1875ZM221.109 331.062C218.484 331.062 216.312 330.672 214.594 329.891V319.531C216.031 320.094 217.375 320.375 218.625 320.375C221.562 320.375 223.031 317.719 223.031 312.406V255.781H235.5V314.047C235.5 319.484 234.234 323.672 231.703 326.609C229.203 329.578 225.672 331.062 221.109 331.062ZM222.562 242.141C222.562 240.078 223.156 238.453 224.344 237.266C225.562 236.047 227.234 235.438 229.359 235.438C231.453 235.438 233.094 236.047 234.281 237.266C235.469 238.484 236.062 240.109 236.062 242.141C236.062 244.234 235.453 245.875 234.234 247.062C233.016 248.25 231.391 248.844 229.359 248.844C227.328 248.844 225.688 248.266 224.438 247.109C223.188 245.953 222.562 244.297 222.562 242.141ZM265.359 308.938C258.828 308.938 253.672 306.625 249.891 302C246.141 297.344 244.266 290.766 244.266 282.266C244.266 273.641 245.969 266.906 249.375 262.062C252.781 257.219 257.531 254.797 263.625 254.797C269.312 254.797 273.797 256.875 277.078 261.031C280.359 265.156 282 270.953 282 278.422V285.078H256.922C257.016 289.734 257.969 293.203 259.781 295.484C261.594 297.734 264.094 298.859 267.281 298.859C271.344 298.859 275.5 297.594 279.75 295.062V305.328C275.75 307.734 270.953 308.938 265.359 308.938ZM263.531 264.406C261.75 264.406 260.281 265.359 259.125 267.266C257.969 269.141 257.297 272.062 257.109 276.031H269.766C269.703 272.219 269.125 269.328 268.031 267.359C266.938 265.391 265.438 264.406 263.531 264.406ZM270.328 317.656C270.328 319.031 270.641 320.031 271.266 320.656C271.922 321.281 272.734 321.594 273.703 321.594C274.953 321.594 276.203 321.375 277.453 320.938V328.812C275.297 329.312 273.406 329.562 271.781 329.562C268.531 329.562 265.906 328.641 263.906 326.797C261.938 324.953 260.953 322.453 260.953 319.297C260.953 314.891 263.438 310.766 268.406 306.922H276.281C272.312 311.016 270.328 314.594 270.328 317.656ZM317.297 308H286.875V300.031L302.906 265.859H287.906V255.781H316.641V264.594L301.078 297.922H317.297V308ZM319.266 255.781H332.203L339.422 285.266C340.141 287.891 340.719 291.562 341.156 296.281H341.438C341.469 295.531 341.609 294.203 341.859 292.297C342.109 290.359 342.312 288.844 342.469 287.75C342.625 286.656 344.781 276 348.938 255.781H362.062L347.109 311.75C345.297 318.625 342.891 323.562 339.891 326.562C336.891 329.562 332.891 331.062 327.891 331.062C325.422 331.062 323.219 330.797 321.281 330.266V319.812C322.562 320.188 324 320.375 325.594 320.375C329.781 320.375 332.531 317.625 333.844 312.125L334.734 308.844L319.266 255.781ZM379.688 279.875L382.828 273.641L393.141 255.781H406.359L393.141 277.203L407.25 308H394.172L384.75 285.922L379.875 290.328V308H367.406V235.062H379.875V269.422L379.312 279.875H379.688ZM475.078 281.797C475.078 290.359 473.266 297.031 469.641 301.812C466.016 306.562 461.047 308.938 454.734 308.938C450.734 308.938 447.203 307.844 444.141 305.656C441.078 303.469 438.719 300.328 437.062 296.234C435.406 292.109 434.578 287.297 434.578 281.797C434.578 273.328 436.375 266.719 439.969 261.969C443.562 257.188 448.547 254.797 454.922 254.797C461.078 254.797 465.969 257.234 469.594 262.109C473.25 266.953 475.078 273.516 475.078 281.797ZM447.328 281.797C447.328 287.234 447.922 291.344 449.109 294.125C450.297 296.906 452.203 298.297 454.828 298.297C459.828 298.297 462.328 292.797 462.328 281.797C462.328 276.328 461.719 272.25 460.5 269.562C459.312 266.844 457.422 265.484 454.828 265.484C452.203 265.484 450.297 266.844 449.109 269.562C447.922 272.25 447.328 276.328 447.328 281.797ZM507.422 254.797C512.172 254.797 515.906 257.156 518.625 261.875C521.344 266.594 522.703 273.234 522.703 281.797C522.703 290.453 521.328 297.141 518.578 301.859C515.859 306.578 512.078 308.938 507.234 308.938C504.891 308.938 502.812 308.438 501 307.438C499.219 306.406 497.531 304.609 495.938 302.047H495.141L493.031 308H483.844V235.062H496.312V252.125C496.312 252.844 496.297 253.594 496.266 254.375C496.234 255.156 496.031 257.891 495.656 262.578H496.312C497.844 259.703 499.5 257.688 501.281 256.531C503.062 255.375 505.109 254.797 507.422 254.797ZM503.109 265.391C500.734 265.391 499.016 266.5 497.953 268.719C496.922 270.938 496.375 274.844 496.312 280.438V281.703C496.312 287.766 496.844 292.031 497.906 294.5C499 296.969 500.766 298.203 503.203 298.203C507.703 298.203 509.953 292.672 509.953 281.609C509.953 270.797 507.672 265.391 503.109 265.391ZM548.719 308.938C542.5 308.938 537.766 306.672 534.516 302.141C531.266 297.609 529.641 290.953 529.641 282.172C529.641 272.984 531.172 266.125 534.234 261.594C537.328 257.062 542.094 254.797 548.531 254.797C550.469 254.797 552.5 255.078 554.625 255.641C556.75 256.203 558.656 257.016 560.344 258.078L556.781 267.781C554.188 266.25 551.891 265.484 549.891 265.484C547.234 265.484 545.312 266.875 544.125 269.656C542.969 272.406 542.391 276.547 542.391 282.078C542.391 287.484 542.969 291.531 544.125 294.219C545.281 296.875 547.172 298.203 549.797 298.203C552.922 298.203 556.188 297.109 559.594 294.922V305.891C556.312 307.922 552.688 308.938 548.719 308.938ZM561.797 255.781H574.734L581.953 285.266C582.672 287.891 583.25 291.562 583.688 296.281H583.969C584 295.531 584.141 294.203 584.391 292.297C584.641 290.359 584.844 288.844 585 287.75C585.156 286.656 587.312 276 591.469 255.781H604.594L589.641 311.75C587.828 318.625 585.422 323.562 582.422 326.562C579.422 329.562 575.422 331.062 570.422 331.062C567.953 331.062 565.75 330.797 563.812 330.266V319.812C565.094 320.188 566.531 320.375 568.125 320.375C572.312 320.375 575.062 317.625 576.375 312.125L577.266 308.844L561.797 255.781Z" fill="white"/>
<path d="M385.266 190L371.625 137.781H384.562L391.219 168.016C391.5 169.422 391.828 171.484 392.203 174.203C392.609 176.891 392.859 178.828 392.953 180.016H393.141C393.172 179.078 393.297 177.734 393.516 175.984C393.766 174.234 394.016 172.625 394.266 171.156C394.516 169.688 396.922 158.562 401.484 137.781H414.422L400.734 190H385.266ZM447.797 174.719C447.797 179.812 446.297 183.797 443.297 186.672C440.328 189.516 435.938 190.938 430.125 190.938C424.969 190.938 420.703 189.922 417.328 187.891V177.062C419.047 178.25 421.047 179.234 423.328 180.016C425.641 180.797 427.672 181.188 429.422 181.188C431.359 181.188 432.828 180.719 433.828 179.781C434.859 178.812 435.375 177.547 435.375 175.984C435.375 174.391 434.844 173 433.781 171.812C432.719 170.625 430.766 169.172 427.922 167.453C424.141 165.203 421.422 162.812 419.766 160.281C418.141 157.719 417.328 154.703 417.328 151.234C417.328 146.797 418.844 143.281 421.875 140.688C424.938 138.094 429.125 136.797 434.438 136.797C439.062 136.797 443.422 138.016 447.516 140.453L443.438 149.406C440.094 147.594 437.156 146.688 434.625 146.688C433.031 146.688 431.828 147.109 431.016 147.953C430.234 148.797 429.844 149.828 429.844 151.047C429.844 152.453 430.328 153.703 431.297 154.797C432.297 155.891 434.141 157.25 436.828 158.875C440.078 160.844 442.359 162.516 443.672 163.891C444.984 165.266 446 166.828 446.719 168.578C447.438 170.328 447.797 172.375 447.797 174.719Z" fill="#2F80ED"/>
</svg>
