<svg width="28" height="16" viewBox="0 0 28 16" fill="none" xmlns="http://www.w3.org/2000/svg">
<path d="M0.925294 13.2779C0.347368 13.8714 0.360031 14.8211 0.953573 15.399C1.54712 15.9769 2.49678 15.9643 3.0747 15.3707L0.925294 13.2779ZM14 2L15.0747 0.953573C14.7923 0.663576 14.4048 0.499999 14 0.499999C13.5952 0.499999 13.2077 0.663575 12.9253 0.953573L14 2ZM24.9253 15.3707C25.5032 15.9643 26.4529 15.9769 27.0464 15.399C27.64 14.8211 27.6526 13.8714 27.0747 13.2779L24.9253 15.3707ZM3.0747 15.3707L15.0747 3.04643L12.9253 0.953573L0.925294 13.2779L3.0747 15.3707ZM12.9253 3.04643L24.9253 15.3707L27.0747 13.2779L15.0747 0.953573L12.9253 3.04643Z" fill="#35A8DB"/>
</svg>
