<svg width="284" height="320" viewBox="0 0 284 320" fill="none" xmlns="http://www.w3.org/2000/svg">
<path fill-rule="evenodd" clip-rule="evenodd" d="M258.172 285.456L283.303 3.94234L283.632 0.249786H279.93H4.07775H0.375L0.703859 3.94234L25.8081 285.501L26.0174 287.85L28.2788 288.476L140.933 319.75H142.74L255.701 288.43L257.962 287.804L258.172 285.456Z" fill="#1572B6"/>
<path fill-rule="evenodd" clip-rule="evenodd" d="M261.798 20.2184H142V299.232L239.298 272.256L261.798 20.2184Z" fill="#35A8DB"/>
<path fill-rule="evenodd" clip-rule="evenodd" d="M141.87 95.1762L57.375 130.367L60.1777 165.206L141.87 130.277L228.77 93.1244L232.373 57.4842L141.87 95.1762Z" fill="#E9E9E8"/>
<path fill-rule="evenodd" clip-rule="evenodd" d="M141.87 57.4866H142.496H143.209H143.921H144.634H145.348H146.061H146.775H147.488H148.202H148.915H149.629H150.342H151.055H151.769H152.482H153.196H153.907H154.621H155.334H156.048H156.761H157.475H158.188H158.901H159.615H160.328H161.042H161.753H162.467H163.18H163.894H164.607H165.321H166.034H166.748H167.461H168.174H168.888H169.601H170.315H171.028H171.742H172.453H173.167H173.88H174.594H175.307H176.021H176.734H177.447H178.161H178.874H179.588H180.301H181.015H181.726H182.44H183.153H183.867H184.58H185.294H186.007H186.72H187.434H188.147H188.861H189.574H190.286H190.999H191.713H192.426H193.14H193.853H194.566H195.28H195.993H196.707H197.42H198.134H198.847H199.561H200.272H200.986H201.699H202.413H203.126H203.84H204.553H205.266H205.98H206.693H207.407H208.12H208.832H209.545H210.259H210.972H211.686H212.399H213.112H213.826H214.539H215.253H215.966H216.68H217.393H218.107H218.818H219.532H220.245H220.959H221.672H222.385H223.099H223.812H224.526H225.239H225.953H226.666H227.38H228.093H228.805H229.518H230.232H230.945H231.658H232.372L231.658 64.541L230.945 71.5947L230.232 78.6485L229.518 85.7045L228.805 92.7585L228.769 93.1252H228.093H227.38H226.666H225.953H225.239H224.526H223.812H223.099H222.385H221.672H220.959H220.245H219.532H218.818H218.107H217.393H216.68H215.966H215.253H214.539H213.826H213.112H212.399H211.686H210.972H210.259H209.545H208.832H208.12H207.407H206.693H205.98H205.266H204.553H203.84H203.126H202.413H201.699H200.986H200.272H199.561H198.847H198.134H197.42H196.707H195.993H195.28H194.566H193.853H193.14H192.426H191.713H190.999H190.286H189.574H188.861H188.147H187.434H186.72H186.007H185.294H184.58H183.867H183.153H182.44H181.726H181.015H180.301H179.588H178.874H178.161H177.447H176.734H176.021H175.307H174.594H173.88H173.167H172.453H171.742H171.028H170.315H169.601H168.888H168.174H167.461H166.748H166.034H165.321H164.607H163.894H163.18H162.467H161.753H161.042H160.328H159.615H158.901H158.188H157.475H156.761H156.048H155.334H154.621H153.907H153.196H152.482H151.769H151.055H150.342H149.629H148.915H148.202H147.488H146.795H146.775H146.061H145.348H144.634H143.921H143.209H142.496H141.974H141.87H141.782H141.069H140.356H139.642H138.929H138.215H137.502H136.789H136.076H135.362H134.649H133.936H133.222H132.509H131.796H131.083H130.369H129.656H128.942H128.229H127.516H126.803H126.089H125.376H124.663H123.949H123.236H122.523H121.809H121.096H120.383H119.67H118.956H118.243H117.53H116.816H116.103H115.39H114.676H113.963H113.25H112.537H111.823H111.11H110.396H109.683H108.97H108.257H107.543H106.83H106.117H105.404H104.69H103.977H103.263H102.55H101.837H101.124H100.41H99.6969H98.9836H98.2701H97.5569H96.8438H96.1304H95.4171H94.7036H93.9904H93.2769H92.5639H91.8506H91.1371H90.4239H89.7104H88.9973H88.2841H87.5706H86.8574H86.1441H85.4309H84.7174H84.0041H83.2909H82.5774H81.8641H81.1511H80.4376H79.7244H79.0109H78.2976H77.5842H76.8711H76.1579H75.4444H74.7311H74.0177H73.3046H72.5912H71.8779H71.1646H70.4512H69.7381H69.0247H68.3114H67.5981H66.8847H66.1714H65.4582H64.7449H64.0314H63.3182H62.6049H61.8914H61.1784H60.4651H59.7517H59.0382H58.3249H57.6119H56.8984H56.1852H55.4719H54.7584H54.1698L54.0454 92.1172L53.3319 86.3443L52.6187 80.5734L51.9052 74.8001L51.1919 69.0291L50.4789 63.258L49.7656 57.4866H50.4789H51.1919H51.9052H52.6187H53.3319H54.0454H54.7584H55.4719H56.1852H56.8984H57.6119H58.3249H59.0382H59.7517H60.4651H61.1784H61.8914H62.6049H63.3182H64.0314H64.7449H65.4582H66.1714H66.8847H67.5981H68.3114H69.0247H69.7381H70.4512H71.1646H71.8779H72.5912H73.3046H74.0177H74.7311H75.4444H76.1579H76.8711H77.5842H78.2976H79.0109H79.7244H80.4376H81.1511H81.8641H82.5774H83.2909H84.0041H84.7174H85.4309H86.1441H86.8574H87.5706H88.2841H88.9973H89.7104H90.4239H91.1371H91.8506H92.5639H93.2769H93.9904H94.7036H95.4171H96.1304H96.8438H97.5569H98.2701H98.9836H99.6969H100.41H101.124H101.837H102.55H103.263H103.977H104.69H105.404H106.117H106.83H107.543H108.257H108.97H109.683H110.396H111.11H111.823H112.537H113.25H113.963H114.676H115.39H116.103H116.816H117.53H118.243H118.956H119.67H120.383H121.096H121.809H122.523H123.236H123.949H124.663H125.376H126.089H126.803H127.516H128.229H128.942H129.656H130.369H131.083H131.796H132.509H133.222H133.936H134.649H135.362H136.076H136.789H137.502H138.215H138.929H139.642H140.356H141.069H141.782H141.87Z" fill="#E9E9E8"/>
<path fill-rule="evenodd" clip-rule="evenodd" d="M57.5078 130.372H225.702L222.638 165.608L60.3103 165.206L57.5078 130.372Z" fill="#E9E9E8"/>
<path fill-rule="evenodd" clip-rule="evenodd" d="M62.7656 184.834L99.5582 184.849L101.959 213.66L141.875 223.559L182.855 212.058L185.627 164.942L222.749 164.36L216.092 240.89L142.008 262.517L67.3907 240.491L62.7656 184.834Z" fill="#E9E9E8"/>
<path fill-rule="evenodd" clip-rule="evenodd" d="M142 130.22L228.766 93.1245L232.369 57.4842L142 95.1205V130.22Z" fill="#FFFFFE"/>
<path fill-rule="evenodd" clip-rule="evenodd" d="M142 57.4866H142.493H143.206H143.918H144.631H145.345H146.058H146.772H147.485H148.199H148.912H149.626H150.339H151.053H151.766H152.479H153.193H153.904H154.618H155.331H156.045H156.758H157.472H158.185H158.899H159.612H160.325H161.039H161.75H162.464H163.177H163.891H164.604H165.318H166.031H166.745H167.458H168.172H168.885H169.598H170.312H171.025H171.739H172.45H173.164H173.877H174.591H175.304H176.018H176.731H177.445H178.158H178.871H179.585H180.298H181.012H181.723H182.437H183.15H183.864H184.577H185.291H186.004H186.718H187.431H188.144H188.858H189.571H190.283H190.996H191.71H192.423H193.137H193.85H194.564H195.277H195.991H196.704H197.417H198.131H198.844H199.558H200.269H200.983H201.696H202.41H203.123H203.837H204.55H205.264H205.977H206.69H207.404H208.117H208.829H209.542H210.256H210.969H211.683H212.396H213.11H213.823H214.536H215.25H215.963H216.677H217.39H218.104H218.815H219.529H220.242H220.956H221.669H222.383H223.096H223.809H224.523H225.236H225.95H226.663H227.377H228.09H228.802H229.515H230.229H230.942H231.656H232.369L231.656 64.541L230.942 71.5947L230.229 78.6485L229.515 85.7045L228.802 92.7585L228.766 93.1252H228.09H227.377H226.663H225.95H225.236H224.523H223.809H223.096H222.383H221.669H220.956H220.242H219.529H218.815H218.104H217.39H216.677H215.963H215.25H214.536H213.823H213.11H212.396H211.683H210.969H210.256H209.542H208.829H208.117H207.404H206.69H205.977H205.264H204.55H203.837H203.123H202.41H201.696H200.983H200.269H199.558H198.844H198.131H197.417H196.704H195.991H195.277H194.564H193.85H193.137H192.423H191.71H190.996H190.283H189.571H188.858H188.144H187.431H186.718H186.004H185.291H184.577H183.864H183.15H182.437H181.723H181.012H180.298H179.585H178.871H178.158H177.445H176.731H176.018H175.304H174.591H173.877H173.164H172.45H171.739H171.025H170.312H169.598H168.885H168.172H167.458H166.745H166.031H165.318H164.604H163.891H163.177H162.464H161.75H161.039H160.325H159.612H158.899H158.185H157.472H156.758H156.045H155.331H154.618H153.904H153.193H152.479H151.766H151.053H150.339H149.626H148.912H148.199H147.485H146.793H146.772H146.058H145.345H144.631H143.918H143.206H142.493H142V57.4866Z" fill="#FFFFFE"/>
<path fill-rule="evenodd" clip-rule="evenodd" d="M142 130.372H225.696L222.632 165.608L142 165.408V130.372Z" fill="#FFFFFE"/>
<path fill-rule="evenodd" clip-rule="evenodd" d="M142 223.521L182.846 212.058L185.619 164.942L222.74 164.36L216.084 240.89L142 262.517V262.515V223.521Z" fill="#FFFFFE"/>
</svg>
