<svg width="88" height="88" viewBox="0 0 88 88" fill="none" xmlns="http://www.w3.org/2000/svg">
<path d="M62 0H26C11.6589 0 0 11.6589 0 26V62C0 76.3411 11.6589 88 26 88H62C76.3411 88 88 76.3411 88 62V26C88 11.6589 76.3411 0 62 0ZM44 66C31.8594 66 22 56.1406 22 44C22 31.8594 31.8594 22 44 22C56.1406 22 66 31.8594 66 44C66 56.1406 56.1406 66 44 66ZM68 24C65.7995 24 64 22.2005 64 20C64 17.7995 65.7995 16 68 16C70.2005 16 72 17.7995 72 20C72 22.2005 70.2005 24 68 24Z" fill="black"/>
<path d="M62 44C62 53.9193 53.9193 62 44 62C34.0807 62 26 53.9193 26 44C26 34.0807 34.0807 26 44 26C53.9193 26 62 34.0807 62 44Z" fill="black"/>
</svg>
