<svg width="102" height="16" viewBox="0 0 102 16" fill="none" xmlns="http://www.w3.org/2000/svg">
<path d="M101.707 6.92912C102.098 7.31965 102.098 7.95281 101.707 8.34334L95.3432 14.7073C94.9526 15.0978 94.3195 15.0978 93.929 14.7073C93.5384 14.3168 93.5384 13.6836 93.929 13.2931L99.5858 7.63623L93.929 1.97937C93.5384 1.58885 93.5384 0.955685 93.929 0.56516C94.3195 0.174636 94.9526 0.174636 95.3432 0.56516L101.707 6.92912ZM2.74596 6.63623L101 6.63623L101 8.63623L2.74596 8.63623L2.74596 6.63623Z" fill="#2B9EEB"/>
<path d="M0.292897 8.70711C-0.0976277 8.31658 -0.0976277 7.68342 0.292897 7.29289L6.65686 0.928931C7.04738 0.538407 7.68055 0.538407 8.07107 0.928931C8.4616 1.31946 8.4616 1.95262 8.07107 2.34315L2.41422 8L8.07107 13.6569C8.4616 14.0474 8.4616 14.6805 8.07107 15.0711C7.68055 15.4616 7.04738 15.4616 6.65686 15.0711L0.292897 8.70711ZM99.2321 9L1 9L1 7L99.2321 7L99.2321 9Z" fill="#2B9EEB"/>
</svg>
